# File created by Blade
# Date/Time:  Thu Sep 25 15:55:53 2014
# Frame Rate: 120.000 fps
#------------------------------------------------------
:FULLY-SPECIFIED
:DEGREES
691
root -4.260783 33.848962 0.744622 34.463682 11.141956 16.293176
Spine -10.543509 2.325246 -2.861544
Head -30.457426 -13.615893 3.822875
LeftShoulder -1.562981 21.053901 10.175481
LeftArm 27.631728 33.513786 -68.022938
LeftForeArm 6.171188 -0.000000 22.783012
LeftHand -22.406322 -0.000000 3.252106
LeftHandThumb1 -26.253704 0.000000 33.147579
RightShoulder -12.040520 10.867184 -25.610074
RightArm -6.742120 -25.944741 82.881409
RightForeArm -19.081842 0.000000 38.448505
RightHand -1.584563 -0.000000 -1.252692
RightHandThumb1 -24.326973 -0.000000 -32.862282
LeftUpLeg -16.875329 -0.062529 -10.159604
LeftLeg -2.307536 -0.000000 0.000000
LeftFoot -1.121932 5.645839 -30.595936
LeftToeBase -7.151125 -0.000000 0.000000
RightUpLeg -33.074979 -13.266082 -5.374410
RightLeg 9.770854 -0.000000 -0.000000
RightFoot -9.059701 -7.207641 -4.423975
RightToeBase -5.096084 -0.000000 0.000000
692
root -4.257895 33.828435 0.770510 33.796297 10.884544 15.812132
Spine -10.420648 2.749011 -2.966872
Head -29.793478 -13.857397 4.192709
LeftShoulder -1.793938 21.207408 10.049917
LeftArm 27.543186 33.742956 -68.279454
LeftForeArm 6.043415 -0.000000 22.919173
LeftHand -22.408909 -0.000000 2.784742
LeftHandThumb1 -26.253704 0.000000 33.147579
RightShoulder -12.219847 10.756290 -25.320477
RightArm -6.469947 -27.042753 83.452301
RightForeArm -18.911249 -0.000000 37.891115
RightHand -1.252564 -0.000000 -0.797936
RightHandThumb1 -24.326973 -0.000000 -32.862282
LeftUpLeg -17.315459 -0.835460 -9.892048
LeftLeg -2.402992 -0.000000 0.000000
LeftFoot -1.711092 6.230370 -30.213553
LeftToeBase -7.177108 -0.000000 0.000000
RightUpLeg -32.482073 -13.004055 -5.085597
RightLeg 9.595301 -0.000000 -0.000000
RightFoot -9.094201 -6.898358 -4.126414
RightToeBase -4.967663 -0.000000 0.000000
693
root -4.241524 33.809695 0.794138 33.142245 10.572948 15.413504
Spine -10.289952 3.129634 -3.113815
Head -29.157719 -14.062192 4.491530
LeftShoulder -1.971991 21.236249 9.895319
LeftArm 27.250342 33.938558 -68.669123
LeftForeArm 5.795306 -0.000000 23.037499
LeftHand -22.424069 -0.000000 2.959234
LeftHandThumb1 -26.253704 0.000000 33.147579
RightShoulder -12.395476 10.643611 -25.035630
RightArm -6.239498 -28.354518 83.992406
RightForeArm -18.706301 0.000000 37.483106
RightHand -1.358589 -0.000000 -1.081966
RightHandThumb1 -24.326973 -0.000000 -32.862282
LeftUpLeg -17.832732 -0.977797 -9.894991
LeftLeg -2.242426 -0.000000 0.000000
LeftFoot -2.044032 6.215944 -29.964136
LeftToeBase -7.605141 -0.000000 0.000000
RightUpLeg -31.903245 -12.787151 -4.901971
RightLeg 9.490001 -0.000000 -0.000000
RightFoot -9.109521 -6.620765 -4.070255
RightToeBase -4.940318 -0.000000 0.000000
694
root -4.228855 33.787797 0.826795 32.427708 10.208885 14.919715
Spine -10.145212 3.591304 -3.196549
Head -28.472574 -14.254316 4.763265
LeftShoulder -2.185046 21.371299 9.701846
LeftArm 27.121456 34.130645 -68.927742
LeftForeArm 5.475458 -0.000000 23.084518
LeftHand -22.302649 -0.000000 2.862291
LeftHandThumb1 -26.253704 0.000000 33.147579
RightShoulder -12.517457 10.515374 -24.736459
RightArm -6.047130 -29.446202 84.565946
RightForeArm -18.724351 -0.000000 37.025280
RightHand -1.269722 -0.000000 -0.917992
RightHandThumb1 -24.326973 -0.000000 -32.862282
LeftUpLeg -18.190781 -0.853655 -9.838242
LeftLeg -2.219303 -0.000000 0.000000
LeftFoot -2.601581 6.183692 -30.651090
LeftToeBase -6.878000 -0.000000 0.000000
RightUpLeg -31.260605 -12.493245 -4.644702
RightLeg 9.344099 -0.000000 -0.000000
RightFoot -9.119137 -6.301709 -4.056762
RightToeBase -4.805222 -0.000000 0.000000
695
root -4.213182 33.762162 0.860784 31.716992 9.814902 14.434051
Spine -10.000738 4.016228 -3.248206
Head -27.811788 -14.351457 4.938704
LeftShoulder -2.403731 21.643051 9.479459
LeftArm 27.089088 34.230615 -69.127078
LeftForeArm 5.055493 0.000000 23.170756
LeftHand -22.180644 -0.000000 2.665132
LeftHandThumb1 -26.253704 0.000000 33.147579
RightShoulder -12.595343 10.477638 -24.518361
RightArm -5.970199 -30.618021 85.212684
RightForeArm -18.600949 -0.000000 36.568757
RightHand -1.102958 0.000000 -0.765138
RightHandThumb1 -24.326973 -0.000000 -32.862282
LeftUpLeg -18.462790 -0.789127 -9.774927
LeftLeg -2.169370 -0.000000 0.000000
LeftFoot -3.037345 6.262674 -30.574893
LeftToeBase -7.214066 -0.000000 0.000000
RightUpLeg -30.617203 -12.233140 -4.381132
RightLeg 9.175788 -0.000000 -0.000000
RightFoot -9.114781 -6.022867 -4.161227
RightToeBase -4.838999 -0.000000 0.000000
